<?xml version="1.0" encoding="UTF-8"?>
<svg width="20px" height="20px" viewBox="0 0 20 20" version="1.1" xmlns="http://www.w3.org/2000/svg" xmlns:xlink="http://www.w3.org/1999/xlink">
    <!-- Generator: sketchtool 51.2 (57519) - http://www.bohemiancoding.com/sketch -->
    <title>59FD5ABA-161D-4244-BB4D-03AB553BAFD5-591-000000BD86DB3B85</title>
    <desc>Created with sketchtool.</desc>
    <defs></defs>
    <g id="Page-1" stroke="none" stroke-width="1" fill="none" fill-rule="evenodd">
        <g id="Speaker" transform="translate(-120.000000, -727.000000)">
            <g id="Agenda-Item-Copy" transform="translate(24.000000, 643.000000)">
                <g id="Group-8">
                    <g id="Event-Types-/-Absinthe-Copy" transform="translate(96.000000, 84.000000)">
                        <g id="Database">
                            <circle id="Oval-4" fill="#4B285B" cx="10" cy="10" r="10"></circle>
                            <path d="M14.6,5.48103714 C14.6,6.40987658 12.5855,7.16207428 10.1,7.16207428 C7.6145,7.16207428 5.6,6.40990644 5.6,5.48103714 C5.6,4.55277984 7.6145,3.8 10.1,3.8 C12.5855,3.8 14.6,4.55274998 14.6,5.48103714 Z M5.6,8.44352564 L5.6,6.19751549 C5.6,6.19751549 5.6140625,7.86452163 10.1,7.86452163 C14.5859375,7.86452163 14.6,6.19751549 14.6,6.19751549 L14.6,8.47084138 C14.6,8.47084138 14.571875,10.2480061 10.0859,10.2480061 C5.6,10.2480061 5.6,8.44337638 5.6,8.44337638 L5.6,8.44352564 Z M5.6,11.4609439 L5.6,9.21493378 C5.6,9.21493378 5.6140625,10.8819399 10.1,10.8819399 C14.5859375,10.8819399 14.6,9.21493378 14.6,9.21493378 L14.6,11.4882596 C14.6,11.4882596 14.571875,13.2654242 10.0859,13.2654242 C5.6,13.2660078 5.6,11.4607946 5.6,11.4607946 L5.6,11.4609439 Z M5.6,14.3955197 L5.6,12.1495094 C5.6,12.1495094 5.6140625,13.8171127 10.1,13.8171127 C14.5859375,13.8171127 14.6,12.1495094 14.6,12.1495094 L14.6,14.4228354 C14.6,14.4228354 14.571875,16.2 10.0859,16.2 C5.6,16.2 5.6,14.3953704 5.6,14.3953704 L5.6,14.3955197 Z" id="Combined-Shape" fill="#FFFFFF"></path>
                        </g>
                    </g>
                </g>
            </g>
        </g>
    </g>
</svg>