<?xml version="1.0" encoding="UTF-8"?>
<svg width="20px" height="20px" viewBox="0 0 20 20" version="1.1" xmlns="http://www.w3.org/2000/svg" xmlns:xlink="http://www.w3.org/1999/xlink">
    <!-- Generator: sketchtool 51.2 (57519) - http://www.bohemiancoding.com/sketch -->
    <title>1426FF1D-C80C-4DE8-8267-23B6F111EC43-591-000000BD86DBCF0C</title>
    <desc>Created with sketchtool.</desc>
    <defs></defs>
    <g id="Page-1" stroke="none" stroke-width="1" fill="none" fill-rule="evenodd">
        <g id="Speaker" transform="translate(-144.000000, -727.000000)">
            <g id="Agenda-Item-Copy" transform="translate(24.000000, 643.000000)">
                <g id="Group-8">
                    <g id="Event-Types-/-Absinthe-Copy-2" transform="translate(120.000000, 84.000000)">
                        <g id="Ecto">
                            <circle id="Oval-4" fill="#4B285B" cx="10" cy="10" r="10"></circle>
                            <path d="M15,9.02112282 C15,10.7144777 14.5056142,12.1086392 13.3430173,12.9478894 C12.2450059,13.740517 10.7312755,13.7604644 10.1575773,13.1852488 C9.58387901,12.6100333 9.52428181,11.522224 10.0370284,11.0082722 C10.5496245,10.4941696 11.2874058,10.3018904 11.6396526,9.86674722 C11.9918995,9.43160407 12.3234028,8.31614714 11.3290535,7.57870796 C10.3347042,6.84126877 8.46357211,8.0071017 8.28929546,9.70241826 C8.11426632,11.4040724 8.72303062,13.0687571 9.6147311,13.9629668 C10.5065821,14.8571765 12.3107518,14.7571325 12.5524515,14.7571325 C12.7941512,14.7571325 12.8170269,15.0598298 12.7338015,15.1434262 C12.6504257,15.2268717 11.5806861,16.2 10.0248381,16.2 C8.85938178,16.2 7.57608558,15.9541904 6.46601254,14.6819862 C5.35578901,13.409933 4.8,12.2356603 4.8,10.0547604 C4.8,7.87401143 5.58213796,6.30952171 7.04813869,4.96534014 C8.67532276,3.47358229 11.95964,3.44566653 13.2986204,4.70036677 C14.5056142,5.83133228 15,7.32791881 15,9.02112282 Z M14.4647164,14.1738203 C14.5213715,14.3140466 14.3679424,14.5082892 14.1220545,14.6076344 C13.876014,14.7070412 13.6307141,14.6738955 13.574059,14.5336692 C13.5174469,14.3935494 13.670876,14.1993068 13.9169165,14.0999 C14.1628044,14.0005548 14.4081043,14.0337005 14.4647164,14.1738203 Z" id="Combined-Shape" fill="#FFFFFF"></path>
                        </g>
                    </g>
                </g>
            </g>
        </g>
    </g>
</svg>