<?xml version="1.0" encoding="UTF-8"?>
<svg width="20px" height="20px" viewBox="0 0 20 20" version="1.1" xmlns="http://www.w3.org/2000/svg" xmlns:xlink="http://www.w3.org/1999/xlink">
    <!-- Generator: sketchtool 51.2 (57519) - http://www.bohemiancoding.com/sketch -->
    <title>6A206B93-9F7C-4EBF-BF5D-A2E331F8F553-591-000000BD86DC44DD</title>
    <desc>Created with sketchtool.</desc>
    <defs></defs>
    <g id="Page-1" stroke="none" stroke-width="1" fill="none" fill-rule="evenodd">
        <g id="Speaker" transform="translate(-168.000000, -727.000000)">
            <g id="Agenda-Item-Copy" transform="translate(24.000000, 643.000000)">
                <g id="Group-8">
                    <g id="Event-Types-/-Absinthe-Copy-3" transform="translate(144.000000, 84.000000)">
                        <g id="Nerves">
                            <circle id="Oval-4" fill="#4B285B" cx="10" cy="10" r="10"></circle>
                            <path d="M15.6764918,5.92351453 C15.4918186,5.76039405 15.2866057,5.67883381 15.0814191,5.67883381 C14.7120595,5.69922387 14.4452932,6.00507476 14.1990535,6.29053559 C14.1169736,6.37209583 14.0554071,6.45365607 13.9938538,6.51483277 C13.8091805,6.67795324 13.5834542,6.84107372 13.275648,7.04497431 C12.8447351,7.31003856 12.372769,7.5139522 11.8186968,7.73823633 C11.5724571,7.84018662 10.8953044,8.00330057 10.6695781,7.59549939 C10.4438518,7.20808174 10.3207451,6.5352163 10.279692,6.33131571 L10.279692,6.27014553 C10.259172,6.14780518 10.238652,6.04584836 10.238652,5.94390459 C10.238652,5.86234435 10.259172,5.78078411 10.279692,5.71960741 C10.320732,5.61765711 10.3617719,5.5361034 10.4233384,5.43414658 C10.5464583,5.18946587 10.6900915,4.92440162 10.6285382,4.57776409 C10.5669782,4.25152314 10.3822985,4.00684243 10.1155453,3.88450207 C9.8077391,3.74176513 9.43839266,3.78255178 9.13058644,3.98645237 C8.92538667,4.12918931 8.7817534,4.29230978 8.74070032,4.49619733 C8.67914039,4.86321839 8.90486013,5.18945934 9.1100599,5.49530371 C9.17161983,5.597254 9.23317976,5.67880772 9.27421971,5.76036795 C9.39733957,5.98466513 9.49994602,6.22934584 9.60253934,6.57597032 C9.74618574,7.06533175 9.82826565,7.5750767 9.86929247,8.02369716 L9.91033242,8.37032164 C9.9308524,8.49266199 9.84877249,8.59461882 9.7256592,8.63538588 C9.43837952,8.69655606 9.13058644,8.676166 8.82278022,8.65577594 C8.69966036,8.65577594 8.5765405,8.63538588 8.45342064,8.63538588 C8.06353452,8.63538588 7.69418807,8.61499582 7.3453419,8.57421571 C7.30430195,8.57421571 7.24274202,8.57421571 7.2016955,8.55382565 C6.99649573,8.53343559 6.79129596,8.53343559 6.64764956,8.43148529 C6.56556965,8.37031511 6.48348974,8.30914494 6.40140984,8.2275847 C6.19621007,8.04408069 5.94997035,7.84016705 5.60112418,7.81978351 C5.27280455,7.79939345 4.98552488,7.92173381 4.80083865,8.166408 C4.59563889,8.43147224 4.55459893,8.79850636 4.67771879,9.14513084 C4.7597987,9.38981155 4.90344497,9.55293203 5.0881182,9.63449226 C5.41643782,9.7772292 5.80632395,9.63449226 6.13464357,9.51215191 C6.23724346,9.47137179 6.33984334,9.43059167 6.44244979,9.41020161 C6.68868951,9.34903143 6.95544264,9.30825131 7.32481536,9.28786126 C7.87886129,9.2674712 9.76672542,9.2674712 9.84880532,9.49176185 C9.8693253,9.53254197 9.82828535,9.59371214 9.80776537,9.6141022 C9.68464551,9.77722268 8.59708018,10.6132086 8.26873428,10.9394234 C8.12508788,11.0821604 7.98145461,11.2452808 7.8172948,11.3880047 L7.38638185,11.7958059 C7.14014213,12.0404866 6.873389,12.3055509 6.54506937,12.4279043 C6.33986961,12.5094645 6.07310334,12.5298546 5.82686362,12.5706412 C5.35489759,12.6522015 4.90347124,12.7133782 4.57515174,13.0600026 C4.24683211,13.4066271 4.12371225,13.9367817 4.24683211,14.4668841 C4.36995197,14.9562455 4.6982716,15.3232666 5.108671,15.4659905 C5.25231741,15.5067706 5.41647722,15.5475507 5.56011049,15.5475507 C5.99102344,15.5475507 6.42194951,15.3640467 6.70922919,15.0378058 C7.0170354,14.7115648 7.05806223,14.3445438 7.07858877,13.9979062 C7.09910874,13.7940056 7.11962872,13.6104886 7.18118865,13.4473681 C7.32483506,13.080347 7.63262814,12.7541061 7.8993944,12.4686453 C8.06355422,12.3055248 8.18667408,12.1627878 8.28928053,12.0404605 C8.65864011,11.6326593 9.06903964,11.2860349 9.47943918,10.9393973 C9.70516549,10.7558933 9.91035212,10.5927729 10.1360784,10.4092558 C10.3207517,10.2665189 10.5669914,10.0218381 10.8132311,10.0422347 C11.1415507,10.0830148 11.2851971,10.5927729 11.4083039,10.8578371 C11.675057,11.3675821 11.9007833,11.8773401 12.1265096,12.3871242 C12.4137893,13.0599896 12.660029,13.7532908 12.8652288,14.4464875 C12.8652288,14.4668776 12.8857487,14.5280478 12.8857487,14.5280478 C12.8857487,14.5484378 12.8447088,14.5892179 12.8036688,14.6503881 C12.7831489,14.6707782 12.7831489,14.6911682 12.7626289,14.7115583 C12.4753492,15.139743 12.5779557,15.7514578 13.0088686,16.0368795 C13.1730284,16.1388298 13.3577016,16.2 13.542388,16.2 C13.8501942,16.2 14.1785138,16.0572631 14.3426737,15.8125823 C14.6299533,15.4047812 14.5273469,14.7726828 14.0964339,14.4872611 C14.034874,14.446481 13.9733141,14.4057009 13.9117607,14.3853108 C13.8502008,14.3445307 13.7886409,14.3241406 13.7476009,14.2833605 C13.686041,14.2221904 13.624481,14.1202401 13.5629277,14.0182963 C13.1935681,13.3046377 12.8447219,12.550212 12.5779688,11.7549671 C12.3932956,11.2656057 12.2496492,10.7558607 12.1265293,10.2461679 C12.0854894,10.0626639 11.9213295,9.73642299 11.9623695,9.55290593 C12.0034094,9.38978545 12.1880958,9.41016899 12.3317291,9.38978545 L12.413809,9.38978545 C13.0909616,9.32861527 13.5629277,9.43056557 13.9117344,9.67524628 C14.0553808,9.77719658 14.2195407,9.83836676 14.4042139,9.81798322 C14.7941,9.79759316 15.1224196,9.49174227 15.1634465,9.08394109 C15.1839664,8.85964391 15.1018865,8.65575637 14.9582467,8.49263589 C14.712007,8.22757165 14.2605675,8.16639495 13.9527744,8.37029554 C13.6654947,8.55379955 13.2756217,8.63535978 12.8857356,8.61497625 C12.7215758,8.59458619 12.4137696,8.69653649 12.2906629,8.53341601 C12.0033832,8.20717506 13.3577016,7.71781364 13.5218615,7.65663694 C13.5629014,7.63624688 13.6039414,7.61585682 13.6655079,7.59546676 C13.8707076,7.51390652 14.0348674,7.43234629 14.2195538,7.45272982 C14.3221537,7.45272982 14.4247536,7.47311988 14.52736,7.5139 C14.7941131,7.57507018 15.1019194,7.63624036 15.4097256,7.49350994 C15.7175318,7.35077953 15.902205,7.12648887 15.943245,6.82064451 C16.0868914,6.5147871 15.943245,6.14777908 15.6764918,5.9234819 L15.6764918,5.92351453 Z" id="Fill-1" fill="#FFFFFF"></path>
                        </g>
                    </g>
                </g>
            </g>
        </g>
    </g>
</svg>