<?xml version="1.0" encoding="UTF-8"?>
<svg width="20px" height="20px" viewBox="0 0 20 20" version="1.1" xmlns="http://www.w3.org/2000/svg" xmlns:xlink="http://www.w3.org/1999/xlink">
    <!-- Generator: sketchtool 51.2 (57519) - http://www.bohemiancoding.com/sketch -->
    <title>51725171-1BE9-4821-9AB7-3AF927480E68-591-000000BD86DCA9C3</title>
    <desc>Created with sketchtool.</desc>
    <defs></defs>
    <g id="Page-1" stroke="none" stroke-width="1" fill="none" fill-rule="evenodd">
        <g id="Speaker" transform="translate(-192.000000, -727.000000)">
            <g id="Agenda-Item-Copy" transform="translate(24.000000, 643.000000)">
                <g id="Group-8">
                    <g id="Event-Types-/-Absinthe-Copy-4" transform="translate(168.000000, 84.000000)">
                        <g id="OTP">
                            <circle id="Oval-4" fill="#4B285B" cx="10" cy="10" r="10"></circle>
                            <path d="M7.94707642,10.1389771 C7.94707642,10.624331 7.85707081,11.0538515 7.67705688,11.4275513 C7.49704296,11.8012511 7.24126753,12.0889272 6.9097229,12.2905884 C6.57817827,12.4922495 6.2004965,12.5930786 5.77666626,12.5930786 C5.35283602,12.5930786 4.97686321,12.4956675 4.64873657,12.3008423 C4.32060993,12.1060171 4.06483449,11.8274554 3.88140259,11.4651489 C3.69797068,11.1028424 3.60169886,10.6869937 3.59258423,10.2175903 L3.59258423,9.93731689 C3.59258423,9.44968425 3.68202018,9.01959415 3.86089478,8.64703369 C4.03976937,8.27447323 4.29611446,7.98679708 4.62993774,7.78399658 C4.96376103,7.58119609 5.34372142,7.47979736 5.76983032,7.47979736 C6.19138191,7.47979736 6.56735471,7.58005678 6.89776001,7.78057861 C7.22816531,7.98110045 7.48508006,8.26649799 7.66851196,8.63677979 C7.85194387,9.00706158 7.94479776,9.43145513 7.94707642,9.90997314 L7.94707642,10.1389771 Z M6.72686157,9.93048096 C6.72686157,9.43601234 6.64426149,9.06060919 6.47905884,8.80426025 C6.31385619,8.54791132 6.07744905,8.41973877 5.76983032,8.41973877 C5.16826481,8.41973877 4.8503969,8.87090613 4.81621704,9.77325439 L4.81279907,10.1389771 C4.81279907,10.6266097 4.89369019,11.0014432 5.05547485,11.2634888 C5.21725952,11.5255344 5.45765425,11.6565552 5.77666626,11.6565552 C6.07972767,11.6565552 6.31328653,11.527813 6.47734985,11.2703247 C6.64141317,11.0128364 6.72458292,10.6425602 6.72686157,10.1594849 L6.72686157,9.93048096 Z M12.1819397,8.47442627 L10.6882874,8.47442627 L10.6882874,12.5247192 L9.48858032,12.5247192 L9.48858032,8.47442627 L8.02227173,8.47442627 L8.02227173,7.54815674 L12.1819397,7.54815674 L12.1819397,8.47442627 Z M13.8875061,10.8362427 L13.8875061,12.5247192 L12.6877991,12.5247192 L12.6877991,7.54815674 L14.6736389,7.54815674 C15.0541747,7.54815674 15.3908412,7.6182244 15.6836487,7.75836182 C15.9764561,7.89849924 16.2031791,8.09787875 16.3638245,8.35650635 C16.5244698,8.61513394 16.6047913,8.90850666 16.6047913,9.2366333 C16.6047913,9.72198729 16.4310463,10.1099229 16.083551,10.4004517 C15.7360558,10.6909805 15.2592539,10.8362427 14.6531311,10.8362427 L13.8875061,10.8362427 Z M13.8875061,9.90997314 L14.6736389,9.90997314 C14.906062,9.90997314 15.0832249,9.85186826 15.2051331,9.73565674 C15.3270412,9.61944522 15.3879944,9.45538436 15.3879944,9.24346924 C15.3879944,9.0110462 15.3253323,8.82533842 15.2000061,8.68634033 C15.07468,8.54734224 14.9037832,8.47670493 14.6873108,8.47442627 L13.8875061,8.47442627 L13.8875061,9.90997314 Z" fill="#FFFFFF"></path>
                        </g>
                    </g>
                </g>
            </g>
        </g>
    </g>
</svg>