<?xml version="1.0" encoding="UTF-8"?>
<svg width="20px" height="20px" viewBox="0 0 20 20" version="1.1" xmlns="http://www.w3.org/2000/svg" xmlns:xlink="http://www.w3.org/1999/xlink">
    <!-- Generator: sketchtool 51.2 (57519) - http://www.bohemiancoding.com/sketch -->
    <title>78F254EC-8C8D-47A8-A76F-87AA6FE538B6-591-000000BD86DD43DF</title>
    <desc>Created with sketchtool.</desc>
    <defs></defs>
    <g id="Page-1" stroke="none" stroke-width="1" fill="none" fill-rule="evenodd">
        <g id="Speaker" transform="translate(-216.000000, -727.000000)">
            <g id="Agenda-Item-Copy" transform="translate(24.000000, 643.000000)">
                <g id="Group-8">
                    <g id="Event-Types-/-Absinthe-Copy-5" transform="translate(192.000000, 84.000000)">
                        <g id="Phoenix">
                            <circle id="Oval-4" fill="#4B285B" cx="10" cy="10" r="10"></circle>
                            <path d="M11.5292268,13.5095623 C11.5287893,13.5073274 11.5283518,13.5050379 11.5278049,13.5028029 C11.5278049,13.5028029 11.5269846,13.5038386 11.5260549,13.5048744 L11.5278049,13.5028575 C11.5263283,13.5023669 11.5247971,13.5019853 11.5232658,13.5016037 C11.5235393,13.5034571 11.5241955,13.5049834 11.5244143,13.5068368 L11.5292268,13.5095623 Z M11.5438282,13.5177386 C11.5389611,13.515013 11.5340939,13.5122875 11.5292267,13.5095619 C11.5298829,13.512669 11.5305939,13.5156672 11.5322892,13.5181747 C11.5332736,13.51981 11.5397814,13.5179566 11.5438282,13.5177386 Z M15.5309295,10.5877184 C15.5310389,10.5833575 15.5311483,10.5789421 15.5314217,10.5743632 C15.5314217,10.5743086 15.5308748,10.5749628 15.530328,10.5755624 L15.5315311,10.5741996 C15.5291248,10.5739816 15.5266639,10.5738181 15.5242577,10.5736 C15.5256795,10.5749083 15.5271561,10.575944 15.5286327,10.5772522 C15.5293983,10.5807409 15.5301639,10.5842842 15.5309295,10.5877184 Z M12.0839222,14.4270368 C11.7134691,13.7397077 11.0907972,13.5846239 10.3716019,13.6307402 C10.5842269,13.6895031 10.7827972,13.7799368 10.965016,13.9066749 C11.1324144,14.0232194 11.2732347,14.167401 11.4120863,14.3151258 C11.6872738,14.6077953 12.1166801,14.787409 12.4011644,14.7266838 C12.2705707,14.6445902 12.1545238,14.5579177 12.0839222,14.4270368 Z M16.282117,11.2356361 C15.8605857,10.818954 15.2948435,10.7652062 14.7714294,11.1289036 C15.1179295,11.1444392 15.3780232,11.2546604 15.5888982,11.4723773 C15.6636013,11.5494014 15.7409842,11.6250081 15.824492,11.6921112 C16.1434295,11.9485309 16.6841248,11.9609049 16.9999998,11.7230189 C16.6289451,11.5786193 16.6289451,11.5786193 16.282117,11.2356361 Z M11.3524767,7.7121545 C11.6465314,7.72234806 11.9392736,7.68397232 12.2468361,7.50185108 C12.1567658,7.50980969 12.1184845,7.50964615 12.0818439,7.51689612 C11.6581251,7.60106109 11.2777736,7.50899202 10.9390392,7.24194266 C10.8147345,7.1439864 10.6883517,7.04859216 10.562461,6.95254378 C10.0633282,6.57205704 9.49102349,6.44477386 8.86507034,6.45562155 C8.87518753,6.48631124 8.87573441,6.50729797 8.88667191,6.51825468 C9.56780474,7.2049842 10.3561251,7.67797611 11.3524767,7.7121545 Z M13.3558436,9.60875535 C12.7952967,9.65765171 12.3084139,9.88872382 11.8510623,10.1935493 C11.4990389,10.4281101 11.1225154,10.5390945 10.6995076,10.4656682 C10.6250779,10.4528036 10.5501014,10.4431552 10.4753435,10.4319804 C10.4745232,10.4423375 10.4737029,10.4527491 10.4728279,10.4631062 C10.4997342,10.4768975 10.525656,10.4930327 10.5537107,10.5040984 C10.6242029,10.5319536 10.693656,10.5653688 10.7668279,10.5827578 C11.5808514,10.7756722 12.3601483,10.6767893 13.062828,10.2244025 C13.5056873,9.93931002 13.964078,9.88528963 14.4609686,9.95887947 C14.5111717,9.96640199 14.5611561,9.97550532 14.6116327,9.98019327 C14.6583358,9.98460866 14.7070624,10.0308885 14.7701717,9.98079289 C14.3357342,9.66795429 13.8678827,9.56421986 13.3558436,9.60875535 Z M15.1008123,10.5366961 C15.2420155,10.548525 15.3831092,10.5612806 15.5242577,10.5736001 C15.2053201,10.2943403 14.8165467,10.2721543 14.4233435,10.2945038 C13.8245154,10.3284096 13.3930857,10.6726466 12.9997732,11.083932 C12.6532185,11.4463756 12.3400778,11.8530277 11.8228981,11.998681 C11.831484,12.0141622 11.8337262,12.0219572 11.8361872,12.0219572 C11.9057497,12.0229929 11.9754762,12.0262636 12.0448747,12.0230475 C12.7960075,11.9891416 13.5036091,11.8312778 14.0665076,11.2878577 C14.2437498,11.1167476 14.4023982,10.9266678 14.5735154,10.749071 C14.7161951,10.6010191 14.8892811,10.5189256 15.1008123,10.5366961 Z M9.70113275,7.4715974 C9.68018744,7.45655237 9.66017182,7.41866723 9.61751556,7.45780612 C9.96516401,7.92665519 10.4118515,8.2722549 10.9497031,8.48980829 C11.8177578,8.84091361 12.6988282,8.90098472 13.5999141,8.59108971 C14.2994767,8.3505872 14.8024923,8.58563862 15.0637892,9.26266518 C15.1015782,8.47683467 14.6377735,7.90425117 13.8990001,7.79195852 C13.4833204,7.72883479 13.0996329,7.86631152 12.7103125,7.97887673 C11.6268984,8.29193337 10.6201015,8.13734019 9.70113275,7.4715974 Z M11.5232655,13.5016037 C11.5063123,13.3773186 11.3998358,13.3225896 11.3161092,13.257667 C10.9457655,12.970285 10.5126405,12.8685675 10.0534296,12.8601728 C9.77939051,12.8551033 9.5081952,12.8347162 9.2496874,12.7389403 C9.13123428,12.6951135 8.99878116,12.6386946 9.00178897,12.4861729 C9.00479678,12.3313616 9.13992959,12.2875893 9.26292177,12.2509034 C9.36354677,12.2209223 9.46750771,12.2018435 9.5821327,12.1751331 C9.29097646,11.9890871 9.00654678,11.9633579 8.62750773,12.11528 C8.0309765,12.3543653 7.44275777,12.325965 6.84803122,12.1119004 C6.51230467,11.9911585 6.2142578,11.8015147 5.90407031,11.6335664 L5.89553906,11.6393445 C5.89964062,11.636619 5.90390625,11.6336754 5.90363281,11.6338389 C5.89597656,11.6104537 5.88208594,11.6098541 5.86425781,11.6229367 C5.87240625,11.6300231 5.8805,11.6370551 5.88853906,11.6441415 C6.14589843,12.0644758 6.49349217,12.402662 6.88614841,12.6917338 C7.64236713,13.2482911 8.46836711,13.5802086 9.43485927,13.4329198 C9.74701551,13.3853317 10.0615233,13.3484278 10.3763592,13.3231347 C10.7710936,13.2913548 11.1471795,13.4020121 11.5232655,13.5016037 Z M5.14353115,5.96540416 C4.94884366,6.01430052 4.79325772,5.93596822 4.63291397,5.77428861 C4.90749991,5.70609536 5.14965615,5.67965752 5.40985928,5.66946397 C5.38858584,5.83784843 5.28894521,5.92888179 5.14353115,5.96540416 Z M8.25738285,11.852428 C8.19569535,11.8413078 8.17152347,11.8371104 8.1473516,11.8326405 C7.36597659,11.6878593 6.87203909,11.2165573 6.63797659,10.4756438 C6.49207033,10.0137722 6.75719534,9.6737326 7.24314846,9.65132858 C7.64100003,9.63295838 7.91339847,9.86086885 8.15424222,10.1261739 C8.46470316,10.4681758 8.74929691,10.8332905 9.05423441,11.1804165 C9.49326567,11.6801188 10.0105,12.0019517 10.7183204,11.9026326 C11.3529141,11.8135617 11.9060235,11.5596495 12.3872188,11.1418227 C12.4596251,11.079026 12.5389766,11.024297 12.6151016,10.9658612 C12.5990782,10.9470004 12.5831094,10.9282486 12.5671407,10.9094423 C12.1631641,11.0344906 11.7511485,11.076464 11.3301094,11.0554228 C10.6931641,11.0234793 10.0861875,10.8909086 9.54308598,10.5422563 C9.04750785,10.2241301 8.68203129,9.79785414 8.5082891,9.22854131 C8.36790628,8.76852303 8.65512504,8.44679914 9.13331254,8.51330256 C9.32236723,8.53952234 9.48156254,8.62445047 9.62440629,8.74481075 C9.74072661,8.84271249 9.85228911,8.94650143 9.97090629,9.04140507 C10.5290469,9.48844973 11.3089454,9.51330675 12.0174219,9.02794085 C10.8526875,9.02265329 10.0602657,8.3841115 9.36425785,7.57478677 C9.09185941,7.25796887 8.82585941,6.93553634 8.54782816,6.62384247 C8.00986722,6.0205693 7.41306253,5.4890871 6.5959219,5.30778353 C5.55204689,5.07616632 4.54426563,5.22748884 3.57695313,5.6690824 C3.38407031,5.75717217 3.19884375,5.85954382 3,6.02449409 C3.0984375,6.02449409 3.15214063,6.02563882 3.20573438,6.02433055 C3.6934375,6.01179303 4.05891407,6.2278201 4.32250782,6.62542329 C4.51435157,6.91487667 4.60475001,7.24210617 4.67365626,7.57882058 C4.77592189,8.07852286 4.72298439,8.58803713 4.78204689,9.09002888 C4.93385939,10.3805767 5.59557814,11.2810983 6.82763284,11.7423158 C7.27951565,11.9114634 7.74293753,11.9677733 8.25738285,11.852428 Z" id="Fill-1" fill="#FFFFFF"></path>
                        </g>
                    </g>
                </g>
            </g>
        </g>
    </g>
</svg>